<svg viewBox="0 0 500 500" xmlns="http://www.w3.org/2000/svg" fill-rule="evenodd" clip-rule="evenodd" stroke-linejoin="round" stroke-miterlimit="2"><path d="M342.348 46.8c-5.237-4.19-14.124-11.102-23.257-17.313 1.395-5.138 6.37-7.018 11.508-8.411 5.138-1.393 8.955-4.741 8.955-4.741s8.21 11.647 20.915 25.889c6.072-1.238 14.806.694 22.085 5.184 7.279 4.491 13.983 2.17 13.983 2.17s-2.735 5.233-1.541 15.895c-2.806 3.3-16.453-1.657-22.071-3.89 15.521 19.143 35.187 57.973 45.57 84.523 5.857 2.028 16.57 7.479 34.076 21.984-5.516 37.339-28.319 48.719-33.757 50.926l.012.048c.507 2.045.918 4.117 1.163 6.211.192 1.645.282 3.306.208 4.961a21.077 21.077 0 01-.305 2.802 16.186 16.186 0 01-.274 1.245 8.088 8.088 0 01-.47 1.26c-.635 1.357-1.614 2.528-2.727 3.52a17.52 17.52 0 01-.607.514 17.74 17.74 0 01-.823.622c-.373.265-.754.517-1.144.756-.477.293-.965.568-1.461.827-.626.326-1.265.627-1.912.907a38.094 38.094 0 01-4.769 1.668 53.245 53.245 0 01-5.818 1.274 70.646 70.646 0 01-6.759.764 90.474 90.474 0 01-9.287.116l-.054-.002c1.209 4.79 1.661 14.68-7.34 29.68a25.55 25.55 0 00-.167.278c2.544-.685 5.326-.9 6.451.888-2.545 1.035-5.827 1.696-8.632 2.697-3.018 4.883-6.47 10.103-10.611 15.196 1.827.516 4.008 1.695 4.946 4.384-2.086-1.147-5.128-1.293-7.697-1.141-10.418 11.752-24.91 22.259-46.739 25.555 2.154 1.227 4.499 3.183 5.613 6.181-2.249 6.896-6.872 12.71-12.272 17.481l.523.93c1.408 2.306 4.145 5.405 9.249 7.298l15.058-15.653c-2.257-2.747-3.863-5.546-3.668-8.119.652-8.571 1.392-19.159 26.677-12.003 1.492.422 3.048 1.198 4.608 2.273l8.181-8.504c-.592-10.149 8.118-25.9 22.805-39.562 18.759-17.449 40.211-24.925 47.876-16.684 7.665 8.24-1.341 29.096-20.1 46.545-18.231 16.958-39.007 24.496-47.198 17.341l-5.873 6.105c8.638 10.05 15.162 28.002 8.601 43.669l-.104.246a33.479 33.479 0 01-1.812 3.612l-.733 1.207-.341.525-.621.9c-.242.337-.493.669-.752.999l-.261.326a32.16 32.16 0 01-3.428 3.602 35.19 35.19 0 01-.818.716l-.066.056a38.15 38.15 0 01-1.049.852l-.298.231c-.654.501-1.33.985-2.024 1.45l-.553.364a42.81 42.81 0 01-2.518 1.505l-.234.128c-.46.251-.927.495-1.402.732l-.972.472-.571.264a46.38 46.38 0 01-.813.36l-.974.409-.504.202a49.56 49.56 0 01-.863.33l-.64.234-1.193.41-1.378.433-.371.11a53.34 53.34 0 01-2.644.697l-1.115.252-.859.177c-.542.107-1.087.207-1.635.298l-.831.133-.95.135c-.302.04-.604.078-.906.114l-.846.093-.602.058-.774.065-1.236.082-.985.046c-.617.023-1.235.036-1.857.039h-.664l-.668-.009-1.205-.036-.785-.037a51.596 51.596 0 01-1.168-.076l-.633-.051a59.484 59.484 0 01-1.326-.132l-1.408-.175a53.107 53.107 0 01-3.925-.688 44.238 44.238 0 01-1.155-.26l-.795-.194-.423-.109c-.218-.058-.437-.116-.654-.176a52.7 52.7 0 01-.918-.263l-1.201-.37-1.177-.396-1.067-.385-.659-.252a55.405 55.405 0 01-.673-.268l-.965-.405a47.19 47.19 0 01-1.466-.659l-.906-.438-.85-.43-.252-.132a51.893 51.893 0 01-1.06-.575l-.501-.284-.469-.273-1.024-.62a50.31 50.31 0 01-1.022-.654l-.714-.479-.792-.553-.703-.512-.753-.569c-.13-.101-.261-.202-.39-.305l-.659-.529a45.618 45.618 0 01-.902-.755l-.899-.792-.386-.352-.693-.652-.267-.257c2.285 12.573 1.906 29.683-6.644 50.797-2.443.558-5.016 1.06-7.7 1.501 1.773 1.444 4.153 3.962 5.395 7.747 2.136 6.505 4.374 13.439 12.442 15.441 8.067 2.002 19.872 23.55 10.942 27.628-8.931 4.078-24.712-4.156-29.979-7.421-5.266-3.265-20.321-8.889-24.207-23.481-3.068-11.519-13.75-15.676-21.518-18.234l-.086-.006a229.576 229.576 0 01-25.006-3.197 203.112 203.112 0 01-18.767-4.379 183.66 183.66 0 01-5.074-1.526l-.15-.048c-31.662 9.843-21.315 20.224-37.143 29.265-22.01 12.571-46.837 3.385-50.703-1.836-3.866-5.22 1.311-12.089 7.278-13.573 5.967-1.485 23.221-7.078 25.947-15.656 2.075-6.527 9.845-15.119 13.442-18.854l-.061-.047a95.09 95.09 0 01-5.17-4.294 84.147 84.147 0 01-7.677-7.792 77.255 77.255 0 01-3.302-4.103l-.148-.198c-.016-.022-.051-.038-.049-.066.002-.021.038-.021.057-.032l.79-.463a53.173 53.173 0 002.531-1.619 66.545 66.545 0 004.787-3.589 89.745 89.745 0 004.908-4.339 123.739 123.739 0 006.212-6.356 170.453 170.453 0 006.455-7.523c3.711-4.574 7.223-9.308 10.614-14.122a482.868 482.868 0 005.34-7.763l.124-.185c-20.999.379-23.803 5.595-51.877 14.534-6.283 2.001-12.05 3.114-17.316 3.501-1.508.921-3.575 1.527-5.87 1.609-3.184.113-6.001-.811-7.532-2.276-6.546-1.234-11.987-3.767-16.377-7.04-1.996-.037-4.506-1.189-6.657-3.242-2.794-2.667-4.097-6.01-3.353-8.139-3.112-5.536-4.486-11.404-4.241-16.319.617-12.376 5.98-16.044 15.005-12.923 9.025 3.122 5.614 7.237 23.121 9.805 14.067 2.063 39.156-8.772 48.474-13.11-3.579-5.716-6.986-12.227-10.097-19.644 10.679-6.008 21.697-6.478 29.28-5.743l-.016-.012a158.511 158.511 0 01-4.99-3.677 144.73 144.73 0 01-9.624-8.067 130.474 130.474 0 01-8.889-8.962 119.21 119.21 0 01-8.127-10.083 111.764 111.764 0 01-6.948-10.939 108.694 108.694 0 01-8.521-19.667l-.302-.956c-.068-.225-.132-.451-.197-.677a90.798 90.798 0 01-1.504-5.975 82.86 82.86 0 01-1.695-11.898 76.674 76.674 0 01-.169-6.064c.014-1.1.052-2.2.113-3.298l.002-.036c-13.804-12.249-31.405-11.514-31.405-11.514l2.909-3.312c11.085-1.784 22.937 4.943 29.043 9.133 1.111-8.183 3.504-15.416 6.402-21.714-8.576-21.012-34.815-31.965-34.815-31.965s1.082-.179 9.99-1.501c12.124 5.737 24.1 22.914 27.521 28.1 2.818-5.17 5.857-9.585 8.55-13.254a28.008 28.008 0 01-.456-.684c-15.977-24.701 5.271-56.283 28.685-64.967 1.841-9.248 6.364-21.845 16.453-33.888 15.475-3.842 37.819 10.088 45.67 15.459 18.036-11.49 84.782-18.977 120.86-15.578z" fill="#582f0e"/><path d="M373.611 242.484s3.609 31.12-26.843 55.874c-30.45 24.754-94.772 18.116-151.695-23.946-42.8-31.628-23.568-78.355-11.784-99.49 11.784-21.132 31.392-24.057 41.481-18.54 10.09 5.52 29.753 14.19 29.753 14.19l119.088 71.912z" fill="#c2c5aa"/><ellipse cx="3709.83" cy="1451.94" rx="35.469" ry="34.655" fill="#582f0e" transform="matrix(-.22247 0 0 .22247 1104.49 -64.106)"/><ellipse cx="4078.34" cy="1317.45" rx="105.012" ry="134.136" fill="#fff" transform="scale(-.26495 .26495) rotate(-30 638.63 10391.083)"/><path d="M254.908 199.789c-.189-.125-.385-.243-.583-.358-7.53-4.347-18.153-.07-23.708 9.55-5.553 9.62-3.949 20.96 3.582 25.308 7.532 4.347 18.155.069 23.708-9.55a25.275 25.275 0 002.474-5.871c-5.686-.147-10.258-4.741-10.258-10.38 0-3.64 1.904-6.844 4.785-8.7z" fill="#582f0e"/><ellipse cx="4078.34" cy="1317.45" rx="105.012" ry="134.136" fill="#fff" transform="scale(-.26495 .26495) rotate(-30 761.118 11074.356)"/><path d="M341.078 240.27c-.189-.125-.385-.243-.583-.358-7.53-4.347-18.153-.07-23.708 9.55-5.553 9.62-3.949 20.961 3.582 25.308 7.532 4.347 18.155.069 23.708-9.55a25.275 25.275 0 002.474-5.871c-5.686-.147-10.258-4.741-10.258-10.38 0-3.64 1.904-6.844 4.785-8.7zM290.85 289.702s-23.776 5.73-40.436-18.778c-3.213-4.726-4.854 2.89-4.854 2.89s8.115 13.592 22.956 19.347c14.838 5.756 23.014 2.957 22.333-3.459z" fill="#582f0e"/><path d="M233.06 125.611l173.692 65.094s16.62 27.921 12.943 43.294c-4.211 17.615-71.812 24.39-135.13-32.213-58.722-52.5-51.506-76.175-51.506-76.175z" fill="#582f0e"/></svg>

